<svg xmlns="http://www.w3.org/2000/svg" xmlns:xlink="http://www.w3.org/1999/xlink" width="2366pt" height="377pt" viewBox="0.00 0.00 2366.06 376.60">
<g id="graph0" class="graph" transform="scale(1 1) rotate(0) translate(4 372.6)">
<!-- 125344926420&#45;&gt;125344977347 -->
<g id="edge15" class="edge">
<title>125344926420:c-&gt;125344977347:c</title>
<path fill="none" stroke="#90918e" stroke-width="2.2" d="M230.37,-164.09C242.03,-178.4 258.52,-196.76 275.8,-210 299.89,-228.45 330.49,-244.02 354.19,-254.67"/>
<polygon fill="#90918e" stroke="#90918e" stroke-width="2.2" points="352.61,-257.8 363.17,-258.59 355.41,-251.38 352.61,-257.8"/>
<g id="a_edge15-label"><a xlink:title="Temperature: 293.17 K
Pressure: 101325 Pa
Liquid flow: 8.96e+04 kmol/hr">
<text text-anchor="middle" x="311.43" y="-253.05" font-family="Arial" font-size="14.00" fill="#90918e"> effluent PC</text>
</a>
</g>
</g>
<!-- 125344926420&#45;&gt;125344914805 -->
<g id="edge18" class="edge">
<title>125344926420:c-&gt;125344914805:c</title>
<path fill="none" stroke="#90918e" stroke-width="1.6" d="M267.96,-126.42C291.92,-119.56 319.84,-111.57 343.09,-104.91"/>
<polygon fill="#90918e" stroke="#90918e" stroke-width="1.6" points="343.8,-108.35 352.45,-102.23 341.87,-101.62 343.8,-108.35"/>
<g id="a_edge18-label"><a xlink:title="Temperature: 293.17 K
Pressure: 101325 Pa
Liquid flow: 810 kmol/hr">
<text text-anchor="middle" x="311.43" y="-126.5" font-family="Arial" font-size="14.00" fill="#90918e"> sludge PC</text>
</a>
</g>
</g>
<!-- 125344977347&#45;&gt;125344966212 -->
<g id="edge2" class="edge">
<title>125344977347:c-&gt;125344966212:c</title>
<path fill="none" stroke="#90918e" stroke-width="2.2" d="M419.54,-288.84C432.7,-298.42 448.91,-310.22 463.27,-320.68"/>
<polygon fill="#90918e" stroke="#90918e" stroke-width="2.2" points="460.99,-323.34 471.13,-326.4 465.11,-317.68 460.99,-323.34"/>
<g id="a_edge2-label"><a xlink:title="Temperature: 293.17 K
Pressure: 101325 Pa
Liquid flow: 1.51e+05 kmol/hr">
<text text-anchor="middle" x="452.18" y="-324.54" font-family="Arial" font-size="14.00" fill="#90918e"> ws2</text>
</a>
</g>
</g>
<!-- 125344966212&#45;&gt;125344965705 -->
<g id="edge3" class="edge">
<title>125344966212:c-&gt;125344965705:c</title>
<path fill="none" stroke="#90918e" stroke-width="2.2" d="M527.25,-347C536.41,-347 546.95,-347 556.97,-347"/>
<polygon fill="#90918e" stroke="#90918e" stroke-width="2.2" points="556.8,-350.5 566.8,-347 556.8,-343.5 556.8,-350.5"/>
<g id="a_edge3-label"><a xlink:title="Temperature: 293.17 K
Pressure: 101325 Pa
Liquid flow: 1.51e+05 kmol/hr">
<text text-anchor="middle" x="548.68" y="-349.45" font-family="Arial" font-size="14.00" fill="#90918e"> ws4</text>
</a>
</g>
</g>
<!-- 125344965705&#45;&gt;125344966023 -->
<g id="edge4" class="edge">
<title>125344965705:c-&gt;125344966023:c</title>
<path fill="none" stroke="#90918e" stroke-width="2.2" d="M623.66,-347C635.55,-347 649.93,-347 663.1,-347"/>
<polygon fill="#90918e" stroke="#90918e" stroke-width="2.2" points="662.92,-350.5 672.92,-347 662.92,-343.5 662.92,-350.5"/>
<g id="a_edge4-label"><a xlink:title="Temperature: 293.17 K
Pressure: 101325 Pa
Liquid flow: 1.51e+05 kmol/hr">
<text text-anchor="middle" x="645.18" y="-349.45" font-family="Arial" font-size="14.00" fill="#90918e"> ws6</text>
</a>
</g>
</g>
<!-- 125344966023&#45;&gt;125344859611 -->
<g id="edge5" class="edge">
<title>125344966023:c-&gt;125344859611:c</title>
<path fill="none" stroke="#90918e" stroke-width="2.2" d="M729.82,-347C743.71,-347 761.12,-347 776.59,-347"/>
<polygon fill="#90918e" stroke="#90918e" stroke-width="2.2" points="776.21,-350.5 786.21,-347 776.21,-343.5 776.21,-350.5"/>
<g id="a_edge5-label"><a xlink:title="Temperature: 293.17 K
Pressure: 101325 Pa
Liquid flow: 1.51e+05 kmol/hr">
<text text-anchor="middle" x="760.93" y="-349.45" font-family="Arial" font-size="14.00" fill="#90918e"> ws8</text>
</a>
</g>
</g>
<!-- 125344859611&#45;&gt;125344960227 -->
<g id="edge6" class="edge">
<title>125344859611:c-&gt;125344960227:c</title>
<path fill="none" stroke="#90918e" stroke-width="2.2" d="M843.01,-347C856.31,-347 872.8,-347 887.58,-347"/>
<polygon fill="#90918e" stroke="#90918e" stroke-width="2.2" points="887.2,-350.5 897.2,-347 887.2,-343.5 887.2,-350.5"/>
<g id="a_edge6-label"><a xlink:title="Temperature: 293.17 K
Pressure: 101325 Pa
Liquid flow: 1.51e+05 kmol/hr">
<text text-anchor="middle" x="875.18" y="-349.45" font-family="Arial" font-size="14.00" fill="#90918e"> ws10</text>
</a>
</g>
</g>
<!-- 125344960227&#45;&gt;125344959870 -->
<g id="edge7" class="edge">
<title>125344960227:c-&gt;125344959870:c</title>
<path fill="none" stroke="#90918e" stroke-width="2.2" d="M954.04,-339.02C977.17,-331.89 1012.38,-321.03 1045.18,-310.91"/>
<polygon fill="#90918e" stroke="#90918e" stroke-width="2.2" points="1045.89,-314.35 1054.42,-308.06 1043.83,-307.66 1045.89,-314.35"/>
<g id="a_edge7-label"><a xlink:title="Temperature: 293.17 K
Pressure: 101325 Pa
Liquid flow: 1.51e+05 kmol/hr">
<text text-anchor="middle" x="997.18" y="-339.06" font-family="Arial" font-size="14.00" fill="#90918e"> ws12</text>
</a>
</g>
</g>
<!-- 125344959870&#45;&gt;125344977347 -->
<g id="edge17" class="edge">
<title>125344959870:c-&gt;125344977347:c</title>
<path fill="none" stroke="#90918e" stroke-width="1.6" d="M1040.73,-275.54C1005.72,-272.55 965.09,-270 928.18,-270 499.43,-270 499.43,-270 499.43,-270 476.88,-270 451.63,-270 431.46,-270"/>
<polygon fill="#90918e" stroke="#90918e" stroke-width="1.6" points="431.74,-266.5 421.74,-270 431.74,-273.5 431.74,-266.5"/>
<g id="a_edge17-label"><a xlink:title="Temperature: 293.17 K
Pressure: 101325 Pa
Liquid flow: 6.72e+04 kmol/hr">
<text text-anchor="middle" x="703.05" y="-272.45" font-family="Arial" font-size="14.00" fill="#90918e"> RAS</text>
</a>
</g>
</g>
<!-- 125344959870&#45;&gt;125344941984 -->
<g id="edge23" class="edge">
<title>125344959870:c-&gt;125344941984:c</title>
<path fill="none" stroke="#90918e" stroke-width="1.6" d="M1171.72,-262.9C1201.31,-246.78 1241.52,-224.86 1272.63,-207.91"/>
<polygon fill="#90918e" stroke="#90918e" stroke-width="1.6" points="1273.99,-211.16 1281.09,-203.3 1270.64,-205.01 1273.99,-211.16"/>
<g id="a_edge23-label"><a xlink:title="Temperature: 293.17 K
Pressure: 101325 Pa
Liquid flow: 1.76e+03 kmol/hr">
<text text-anchor="middle" x="1251.55" y="-232.86" font-family="Arial" font-size="14.00" fill="#90918e"> WAS</text>
</a>
</g>
</g>
<!-- 125344959870&#45;&gt;125314923199 -->
<g id="edge8" class="edge">
<title>125344959870:c-&gt;125314923199:w</title>
<path fill="none" stroke="#90918e" stroke-width="1.6" d="M1219.97,-294.42C1250.69,-296.95 1285.37,-299 1317.09,-299"/>
<g id="a_edge8-label"><a xlink:title="Temperature: 293.17 K
Pressure: 101325 Pa
Liquid flow: 8.78e+04 kmol/hr">
<text text-anchor="middle" x="1251.55" y="-300.25" font-family="Arial" font-size="14.00" fill="#90918e"> effluent</text>
</a>
</g>
</g>
<!-- 125344914805&#45;&gt;125344926420 -->
<g id="edge20" class="edge">
<title>125344914805:c-&gt;125344926420:c</title>
<path fill="none" stroke="#90918e" stroke-width="1.6" d="M354.6,-78.92C331.18,-73.34 300.74,-69.98 275.8,-80.25 260.36,-86.61 246.73,-98.85 236.18,-110.77"/>
<polygon fill="#90918e" stroke="#90918e" stroke-width="1.6" points="233.65,-108.35 229.96,-118.28 239.03,-112.82 233.65,-108.35"/>
<g id="a_edge20-label"><a xlink:title="Temperature: 293.17 K
Pressure: 101325 Pa
Liquid flow: 439 kmol/hr">
<text text-anchor="middle" x="311.43" y="-82.7" font-family="Arial" font-size="14.00" fill="#90918e"> effluent GT</text>
</a>
</g>
</g>
<!-- 125344914805&#45;&gt;125344985344 -->
<g id="edge16" class="edge">
<title>125344914805:c-&gt;125344985344:c</title>
<path fill="none" stroke="#90918e" d="M430.38,-91C450.73,-91 476.48,-91 499.43,-91 499.43,-91 499.43,-91 1322.18,-91 1372.11,-91 1428.23,-102.9 1466.35,-112.82"/>
<polygon fill="#90918e" stroke="#90918e" points="1465.06,-116.1 1475.63,-115.3 1466.87,-109.34 1465.06,-116.1"/>
<g id="a_edge16-label"><a xlink:title="Temperature: 293.17 K
Pressure: 101325 Pa
Liquid flow: 371 kmol/hr">
<text text-anchor="middle" x="816.18" y="-93.45" font-family="Arial" font-size="14.00" fill="#90918e"> sludge GT</text>
</a>
</g>
</g>
<!-- 125344941984&#45;&gt;125344926420 -->
<g id="edge21" class="edge">
<title>125344941984:c-&gt;125344926420:c</title>
<path fill="none" stroke="#90918e" stroke-width="1.6" d="M1283.24,-182C1245.14,-182 1184,-182 1131.18,-182 391.68,-182 391.68,-182 391.68,-182 354.13,-182 313.2,-173.44 280.04,-164.23"/>
<polygon fill="#90918e" stroke="#90918e" stroke-width="1.6" points="281.11,-160.9 270.53,-161.5 279.17,-167.63 281.11,-160.9"/>
<g id="a_edge21-label"><a xlink:title="Temperature: 293.17 K
Pressure: 101325 Pa
Liquid flow: 1.46e+03 kmol/hr">
<text text-anchor="middle" x="703.05" y="-184.45" font-family="Arial" font-size="14.00" fill="#90918e"> effluent MT</text>
</a>
</g>
</g>
<!-- 125344941984&#45;&gt;125344985344 -->
<g id="edge9" class="edge">
<title>125344941984:c-&gt;125344985344:c</title>
<path fill="none" stroke="#90918e" d="M1359.16,-171.07C1389.83,-162 1433.57,-149.08 1466.34,-139.39"/>
<polygon fill="#90918e" stroke="#90918e" points="1466.95,-142.86 1475.55,-136.67 1464.97,-136.15 1466.95,-142.86"/>
<g id="a_edge9-label"><a xlink:title="Temperature: 293.17 K
Pressure: 101325 Pa
Liquid flow: 293 kmol/hr">
<text text-anchor="middle" x="1400.55" y="-170.92" font-family="Arial" font-size="14.00" fill="#90918e"> sludge MT</text>
</a>
</g>
</g>
<!-- 125344985344&#45;&gt;125345001866 -->
<g id="edge10" class="edge">
<title>125344985344:e-&gt;125345001866:c</title>
<path fill="none" stroke="#90918e" stroke-width="1.6" d="M1583.01,-126C1595.5,-126 1608.77,-126 1621.65,-126"/>
<polygon fill="#90918e" stroke="#90918e" stroke-width="1.6" points="1621.42,-129.5 1631.42,-126 1621.42,-122.5 1621.42,-129.5"/>
<g id="a_edge10-label"><a xlink:title="Temperature: 293.17 K
Pressure: 101325 Pa
Liquid flow: 663 kmol/hr">
<text text-anchor="middle" x="1608.64" y="-128.45" font-family="Arial" font-size="14.00" fill="#90918e"> ws15</text>
</a>
</g>
</g>
<!-- 125345001866&#45;&gt;125344977914 -->
<g id="edge11" class="edge">
<title>125345001866:c-&gt;125344977914:c</title>
<path fill="none" stroke="#90918e" d="M1760.1,-126C1772.85,-126 1786.34,-126 1799.33,-126"/>
<polygon fill="#90918e" stroke="#90918e" points="1799.07,-129.5 1809.07,-126 1799.06,-122.5 1799.07,-129.5"/>
<g id="a_edge11-label"><a xlink:title="Temperature: 293.17 K
Pressure: 101325 Pa
Liquid flow: 487 kmol/hr">
<text text-anchor="middle" x="1785.39" y="-128.45" font-family="Arial" font-size="14.00" fill="#90918e"> ws16</text>
</a>
</g>
</g>
<!-- 125344977914&#45;&gt;125345211293 -->
<g id="edge19" class="edge">
<title>125344977914:c-&gt;125345211293:c</title>
<path fill="none" stroke="#90918e" d="M1928.6,-111.15C1931.19,-110.5 1933.75,-109.87 1936.26,-109.25 1957.31,-104.08 1980.22,-98.6 2001.16,-93.66"/>
<polygon fill="#90918e" stroke="#90918e" points="2001.83,-97.1 2010.76,-91.4 2000.22,-90.29 2001.83,-97.1"/>
<g id="a_edge19-label"><a xlink:title="Temperature: 308.15 K
Pressure: 101325 Pa
Liquid flow: 469 kmol/hr">
<text text-anchor="middle" x="1970.39" y="-111.7" font-family="Arial" font-size="14.00" fill="#90918e"> sludge DG</text>
</a>
</g>
</g>
<!-- 125344977914&#45;&gt;125324959564 -->
<g id="edge12" class="edge">
<title>125344977914:c-&gt;125324959564:w</title>
<path fill="none" stroke="#90918e" stroke-dasharray="5,2" d="M1928.46,-133.11C1968.13,-137.38 2022.01,-142 2069.68,-142"/>
<g id="a_edge12-label"><a xlink:title="(empty)">
<text text-anchor="middle" x="1970.39" y="-142.13" font-family="Arial" font-size="14.00" fill="#90918e"> gas</text>
</a>
</g>
</g>
<!-- 125345211293&#45;&gt;125345201128 -->
<g id="edge13" class="edge">
<title>125345211293:c-&gt;125345201128:c</title>
<path fill="none" stroke="#90918e" d="M2135.19,-58.02C2148.49,-53.84 2162.42,-49.47 2175.21,-45.45"/>
<polygon fill="#90918e" stroke="#90918e" points="2176.18,-48.81 2184.67,-42.48 2174.08,-42.13 2176.18,-48.81"/>
<g id="a_edge13-label"><a xlink:title="Temperature: 308.15 K
Pressure: 101325 Pa
Liquid flow: 469 kmol/hr">
<text text-anchor="middle" x="2160.64" y="-57.36" font-family="Arial" font-size="14.00" fill="#90918e"> ws20</text>
</a>
</g>
</g>
<!-- 125345201128&#45;&gt;125344926420 -->
<g id="edge22" class="edge">
<title>125345201128:c-&gt;125344926420:c</title>
<path fill="none" stroke="#90918e" d="M2186.06,-17.97C2156.08,-9.62 2113.18,0 2074.76,0 391.68,0 391.68,0 391.68,0 321.19,0 262.52,-68.82 233.37,-110.64"/>
<polygon fill="#90918e" stroke="#90918e" points="230.5,-108.63 227.79,-118.87 236.3,-112.56 230.5,-108.63"/>
<g id="a_edge22-label"><a xlink:title="Temperature: 308.15 K
Pressure: 101325 Pa
Liquid flow: 294 kmol/hr">
<text text-anchor="middle" x="997.18" y="-2.45" font-family="Arial" font-size="14.00" fill="#90918e"> effluent DU</text>
</a>
</g>
</g>
<!-- 125345201128&#45;&gt;125324958374 -->
<g id="edge14" class="edge">
<title>125345201128:c-&gt;125324958374:w</title>
<path fill="none" stroke="#90918e" d="M2264.91,-30C2288.97,-30 2320.58,-30 2348.58,-30"/>
<g id="a_edge14-label"><a xlink:title="Temperature: 308.15 K
Pressure: 101325 Pa
Liquid flow: 175 kmol/hr">
<text text-anchor="middle" x="2305.89" y="-32.45" font-family="Arial" font-size="14.00" fill="#90918e"> sludge DU</text>
</a>
</g>
</g>
<!-- 125314922954&#45;&gt;125344926420 -->
<g id="edge1" class="edge">
<title>125314922954:e-&gt;125344926420:c</title>
<path fill="none" stroke="#90918e" stroke-width="2.2" d="M10.8,-142C60.29,-142 116.64,-142 157.02,-142"/>
<g id="a_edge1-label"><a xlink:title="Temperature: 293.15 K
Pressure: 101325 Pa
Liquid flow: 8.82e+04 kmol/hr">
<text text-anchor="middle" x="84.05" y="-144.45" font-family="Arial" font-size="14.00" fill="#90918e"> domestic wastewater</text>
</a>
</g>
</g>
<!-- 125344926420 -->
<g id="node1" class="node">
<title>125344926420</title>
<g id="a_node1"><a xlink:title="Electricity consumption: 0.278 kW
Utility cost: 0.0217 USD/hr
Purchase cost: 10,724,556 USD
Installed equipment cost: 10,724,556 USD">
<polygon fill="#555f69" stroke="#90918e" points="267.8,-163.6 157.3,-163.6 157.3,-120.4 267.8,-120.4 267.8,-163.6"/>
<text text-anchor="middle" x="212.55" y="-144.45" font-family="Arial" font-size="14.00" fill="white">PC</text>
<text text-anchor="middle" x="212.55" y="-128.7" font-family="Arial" font-size="14.00" fill="white">Primary clarifier</text>
</a>
</g>
</g>
<!-- 125344977347 -->
<g id="node2" class="node">
<title>125344977347</title>
<g id="a_node2"><a xlink:title="No capital costs or utilities">
<polygon fill="#555f69" stroke="#90918e" points="419.05,-291.6 366.3,-291.6 366.3,-248.4 419.05,-248.4 419.05,-291.6"/>
<text text-anchor="middle" x="392.68" y="-272.45" font-family="Arial" font-size="14.00" fill="white">O1</text>
<text text-anchor="middle" x="392.68" y="-256.7" font-family="Arial" font-size="14.00" fill="white">CSTR</text>
</a>
</g>
</g>
<!-- 125344966212 -->
<g id="node3" class="node">
<title>125344966212</title>
<g id="a_node3"><a xlink:title="No capital costs or utilities">
<polygon fill="#555f69" stroke="#90918e" points="526.8,-368.6 474.05,-368.6 474.05,-325.4 526.8,-325.4 526.8,-368.6"/>
<text text-anchor="middle" x="500.43" y="-349.45" font-family="Arial" font-size="14.00" fill="white">O2</text>
<text text-anchor="middle" x="500.43" y="-333.7" font-family="Arial" font-size="14.00" fill="white">CSTR</text>
</a>
</g>
</g>
<!-- 125344965705 -->
<g id="node4" class="node">
<title>125344965705</title>
<g id="a_node4"><a xlink:title="No capital costs or utilities">
<polygon fill="#555f69" stroke="#90918e" points="623.3,-368.6 570.55,-368.6 570.55,-325.4 623.3,-325.4 623.3,-368.6"/>
<text text-anchor="middle" x="596.93" y="-349.45" font-family="Arial" font-size="14.00" fill="white">O3</text>
<text text-anchor="middle" x="596.93" y="-333.7" font-family="Arial" font-size="14.00" fill="white">CSTR</text>
</a>
</g>
</g>
<!-- 125344966023 -->
<g id="node5" class="node">
<title>125344966023</title>
<g id="a_node5"><a xlink:title="No capital costs or utilities">
<polygon fill="#555f69" stroke="#90918e" points="729.43,-368.6 676.68,-368.6 676.68,-325.4 729.43,-325.4 729.43,-368.6"/>
<text text-anchor="middle" x="703.05" y="-349.45" font-family="Arial" font-size="14.00" fill="white">O4</text>
<text text-anchor="middle" x="703.05" y="-333.7" font-family="Arial" font-size="14.00" fill="white">CSTR</text>
</a>
</g>
</g>
<!-- 125344859611 -->
<g id="node6" class="node">
<title>125344859611</title>
<g id="a_node6"><a xlink:title="No capital costs or utilities">
<polygon fill="#555f69" stroke="#90918e" points="842.55,-368.6 789.8,-368.6 789.8,-325.4 842.55,-325.4 842.55,-368.6"/>
<text text-anchor="middle" x="816.18" y="-349.45" font-family="Arial" font-size="14.00" fill="white">O5</text>
<text text-anchor="middle" x="816.18" y="-333.7" font-family="Arial" font-size="14.00" fill="white">CSTR</text>
</a>
</g>
</g>
<!-- 125344960227 -->
<g id="node7" class="node">
<title>125344960227</title>
<g id="a_node7"><a xlink:title="No capital costs or utilities">
<polygon fill="#555f69" stroke="#90918e" points="953.55,-368.6 900.8,-368.6 900.8,-325.4 953.55,-325.4 953.55,-368.6"/>
<text text-anchor="middle" x="927.18" y="-349.45" font-family="Arial" font-size="14.00" fill="white">O6</text>
<text text-anchor="middle" x="927.18" y="-333.7" font-family="Arial" font-size="14.00" fill="white">CSTR</text>
</a>
</g>
</g>
<!-- 125344959870 -->
<g id="node8" class="node">
<title>125344959870</title>
<g id="a_node8"><a xlink:title="Electricity consumption: 8.2 kW
Utility cost: 0.641 USD/hr
Purchase cost: 14,569,212 USD
Installed equipment cost: 14,569,212 USD">
<polygon fill="#555f69" stroke="#90918e" points="1219.55,-306.6 1040.8,-306.6 1040.8,-263.4 1219.55,-263.4 1219.55,-306.6"/>
<text text-anchor="middle" x="1130.18" y="-287.45" font-family="Arial" font-size="14.00" fill="white">C1</text>
<text text-anchor="middle" x="1130.18" y="-271.7" font-family="Arial" font-size="14.00" fill="white">Flat bottom circular clarifier</text>
</a>
</g>
</g>
<!-- 125344914805 -->
<g id="node9" class="node">
<title>125344914805</title>
<g id="a_node9"><a xlink:title="Electricity consumption: 0.0757 kW
Utility cost: 0.00592 USD/hr
Purchase cost: 1,568,770 USD
Installed equipment cost: 1,568,770 USD">
<polygon fill="#555f69" stroke="#90918e" points="430.3,-112.6 355.05,-112.6 355.05,-69.4 430.3,-69.4 430.3,-112.6"/>
<text text-anchor="middle" x="392.68" y="-93.45" font-family="Arial" font-size="14.00" fill="white">GT</text>
<text text-anchor="middle" x="392.68" y="-77.7" font-family="Arial" font-size="14.00" fill="white">Thickener</text>
</a>
</g>
</g>
<!-- 125344941984 -->
<g id="node10" class="node">
<title>125344941984</title>
<g id="a_node10"><a xlink:title="Electricity consumption: 0.0653 kW
Utility cost: 0.00511 USD/hr
Purchase cost: 1,442,637 USD
Installed equipment cost: 1,442,637 USD">
<polygon fill="#555f69" stroke="#90918e" points="1358.8,-203.6 1283.55,-203.6 1283.55,-160.4 1358.8,-160.4 1358.8,-203.6"/>
<text text-anchor="middle" x="1321.18" y="-184.45" font-family="Arial" font-size="14.00" fill="white">MT</text>
<text text-anchor="middle" x="1321.18" y="-168.7" font-family="Arial" font-size="14.00" fill="white">Thickener</text>
</a>
</g>
</g>
<!-- 125344985344 -->
<g id="node11" class="node">
<title>125344985344</title>
<g id="a_node11"><a xlink:title="No capital costs or utilities">
<polygon fill="#555f69" stroke="#90918e" points="1583.01,-126 1477.48,-181.86 1477.48,-70.14 1583.01,-126"/>
<text text-anchor="middle" x="1512.66" y="-128.45" font-family="Arial" font-size="14.00" fill="white">Mixer</text>
<text text-anchor="middle" x="1512.66" y="-112.7" font-family="Arial" font-size="14.00" fill="white">Mixer</text>
</a>
</g>
</g>
<!-- 125345001866 -->
<g id="node12" class="node">
<title>125345001866</title>
<g id="a_node12"><a xlink:title="No capital costs or utilities">
<polygon fill="#555f69" stroke="#90918e" points="1759.76,-147.6 1634.26,-147.6 1634.26,-104.4 1759.76,-104.4 1759.76,-147.6"/>
<text text-anchor="middle" x="1697.01" y="-128.45" font-family="Arial" font-size="14.00" fill="white">J1</text>
<text text-anchor="middle" x="1697.01" y="-112.7" font-family="Arial" font-size="14.00" fill="white">ASM2dtom ADM1</text>
</a>
</g>
</g>
<!-- 125344977914 -->
<g id="node13" class="node">
<title>125344977914</title>
<g id="a_node13"><a xlink:title="Heating duty: 694 MJ/hr
Utility cost: 4.27 USD/hr">
<polygon fill="#555f69" stroke="#90918e" points="1928.26,-147.6 1811.01,-147.6 1811.01,-104.4 1928.26,-104.4 1928.26,-147.6"/>
<text text-anchor="middle" x="1869.64" y="-128.45" font-family="Arial" font-size="14.00" fill="white">DG</text>
<text text-anchor="middle" x="1869.64" y="-112.7" font-family="Arial" font-size="14.00" fill="white">Anaerobic CSTR</text>
</a>
</g>
</g>
<!-- 125345211293 -->
<g id="node14" class="node">
<title>125345211293</title>
<g id="a_node14"><a xlink:title="No capital costs or utilities">
<polygon fill="#555f69" stroke="#90918e" points="2135.01,-98.6 2012.51,-98.6 2012.51,-55.4 2135.01,-55.4 2135.01,-98.6"/>
<text text-anchor="middle" x="2073.76" y="-79.45" font-family="Arial" font-size="14.00" fill="white">J2</text>
<text text-anchor="middle" x="2073.76" y="-63.7" font-family="Arial" font-size="14.00" fill="white">MADM1to asm2d</text>
</a>
</g>
</g>
<!-- 125345201128 -->
<g id="node15" class="node">
<title>125345201128</title>
<g id="a_node15"><a xlink:title="Electricity consumption: 0.111 kW
Utility cost: 0.00869 USD/hr
Purchase cost: 207,063 USD
Installed equipment cost: 207,063 USD">
<polygon fill="#555f69" stroke="#90918e" points="2264.51,-51.6 2186.26,-51.6 2186.26,-8.4 2264.51,-8.4 2264.51,-51.6"/>
<text text-anchor="middle" x="2225.39" y="-32.45" font-family="Arial" font-size="14.00" fill="white">DU</text>
<text text-anchor="middle" x="2225.39" y="-16.7" font-family="Arial" font-size="14.00" fill="white">Centrifuge</text>
</a>
</g>
</g>
<!-- 125314922954 -->
<g id="node16" class="node">
<title>125314922954</title>
<polygon fill="#f98f60" stroke="#90918e" points="5.4,-147.4 0,-142 5.4,-136.6 10.8,-142 5.4,-147.4"/>
</g>
<!-- 125314923199 -->
<g id="node17" class="node">
<title>125314923199</title>
<polygon fill="#f98f60" stroke="#90918e" points="1326.58,-299 1318.48,-306.2 1318.48,-291.8 1326.58,-299"/>
</g>
<!-- 125324959564 -->
<g id="node18" class="node">
<title>125324959564</title>
<polygon fill="#f98f60" stroke="#90918e" points="2079.16,-142 2071.06,-149.2 2071.06,-134.8 2079.16,-142"/>
</g>
<!-- 125324958374 -->
<g id="node19" class="node">
<title>125324958374</title>
<polygon fill="#f98f60" stroke="#90918e" points="2358.06,-30 2349.96,-37.2 2349.96,-22.8 2358.06,-30"/>
</g>
</g>
</svg>