<svg xmlns="http://www.w3.org/2000/svg" xmlns:xlink="http://www.w3.org/1999/xlink" width="1952pt" height="359pt" viewBox="0.00 0.00 1951.75 358.61">
<g id="graph0" class="graph" transform="scale(1 1) rotate(0) translate(4 354.61)">
<!-- 152164960503&#45;&gt;152165004766 -->
<g id="edge15" class="edge">
<title>152164960503:c-&gt;152165004766:c</title>
<path fill="none" stroke="#90918e" stroke-width="1.6" d="M268.25,-259.67C378.7,-259.28 626.76,-258.41 732.32,-258.03"/>
<polygon fill="#90918e" stroke="#90918e" stroke-width="1.6" points="732.06,-261.54 742.05,-258 732.04,-254.54 732.06,-261.54"/>
<g id="a_edge15-label"><a xlink:title="Temperature: 293.17 K
Pressure: 101325 Pa
Liquid flow: 878 kmol/hr">
<text text-anchor="middle" x="461" y="-261.54" font-family="Arial" font-size="14.00" fill="#90918e"> sludge PC</text>
</a>
</g>
</g>
<!-- 152164960503&#45;&gt;152165004700 -->
<g id="edge2" class="edge">
<title>152164960503:c-&gt;152165004700:c</title>
<path fill="none" stroke="#90918e" stroke-width="2.2" d="M241.34,-237.91C251.76,-230.34 263.95,-222.24 275.8,-216.11 304.31,-201.37 338.99,-189.58 364.01,-182.06"/>
<polygon fill="#90918e" stroke="#90918e" stroke-width="2.2" points="364.65,-185.52 373.27,-179.36 362.69,-178.8 364.65,-185.52"/>
<g id="a_edge2-label"><a xlink:title="Temperature: 293.17 K
Pressure: 101325 Pa
Liquid flow: 8.88e+04 kmol/hr">
<text text-anchor="middle" x="322.3" y="-218.56" font-family="Arial" font-size="14.00" fill="#90918e"> effluent PC</text>
</a>
</g>
</g>
<!-- 152165004766&#45;&gt;152165004826 -->
<g id="edge12" class="edge">
<title>152165004766:c-&gt;152165004826:c</title>
<path fill="none" stroke="#90918e" d="M804.01,-235.86C834.25,-203.62 891.27,-142.83 930.63,-100.88"/>
<polygon fill="#90918e" stroke="#90918e" points="933.17,-103.29 937.46,-93.6 928.06,-98.5 933.17,-103.29"/>
<g id="a_edge12-label"><a xlink:title="Temperature: 293.17 K
Pressure: 101325 Pa
Liquid flow: 368 kmol/hr">
<text text-anchor="middle" x="861.75" y="-211.5" font-family="Arial" font-size="14.00" fill="#90918e"> sludge GT</text>
</a>
</g>
</g>
<!-- 152165004766&#45;&gt;152165210500 -->
<g id="edge16" class="edge">
<title>152165004766:c-&gt;152165210500:c</title>
<path fill="none" stroke="#90918e" stroke-width="1.6" d="M820.41,-258.79C858.6,-259.67 919.89,-260.86 972.86,-260.86 972.86,-260.86 972.86,-260.86 1674.09,-260.86 1726.09,-260.86 1783.78,-244.83 1822.78,-231.49"/>
<polygon fill="#90918e" stroke="#90918e" stroke-width="1.6" points="1823.69,-234.88 1831.97,-228.26 1821.37,-228.27 1823.69,-234.88"/>
<g id="a_edge16-label"><a xlink:title="Temperature: 293.17 K
Pressure: 101325 Pa
Liquid flow: 509 kmol/hr">
<text text-anchor="middle" x="1324.84" y="-263.31" font-family="Arial" font-size="14.00" fill="#90918e"> effluent GT</text>
</a>
</g>
</g>
<!-- 152165004700&#45;&gt;152145854068 -->
<g id="edge3" class="edge">
<title>152165004700:c-&gt;152145854068:c</title>
<path fill="none" stroke="#90918e" stroke-width="2.2" d="M409.51,-150.78C414.05,-143.47 420.18,-136.18 428,-132.11 460.37,-115.28 500.8,-122.12 533.22,-133.21"/>
<polygon fill="#90918e" stroke="#90918e" stroke-width="2.2" points="531.95,-136.47 542.54,-136.65 534.37,-129.91 531.95,-136.47"/>
<g id="a_edge3-label"><a xlink:title="Temperature: 293.17 K
Pressure: 101325 Pa
Liquid flow: 1.39e+05 kmol/hr">
<text text-anchor="middle" x="461" y="-134.56" font-family="Arial" font-size="14.00" fill="#90918e"> treated</text>
</a>
</g>
</g>
<!-- 152145854068&#45;&gt;152165004700 -->
<g id="edge14" class="edge">
<title>152145854068:c-&gt;152165004700:c</title>
<path fill="none" stroke="#90918e" stroke-width="2.2" d="M501.57,-165.91C477.29,-167.56 452.43,-169.25 433.31,-170.55"/>
<polygon fill="#90918e" stroke="#90918e" stroke-width="2.2" points="433.26,-167.05 423.52,-171.22 433.74,-174.03 433.26,-167.05"/>
<g id="a_edge14-label"><a xlink:title="Temperature: 293.17 K
Pressure: 101325 Pa
Liquid flow: 4.04e+04 kmol/hr">
<text text-anchor="middle" x="461" y="-173.13" font-family="Arial" font-size="14.00" fill="#90918e"> RAS</text>
</a>
</g>
</g>
<!-- 152145854068&#45;&gt;152165004790 -->
<g id="edge20" class="edge">
<title>152145854068:c-&gt;152165004790:c</title>
<path fill="none" stroke="#90918e" stroke-width="2.2" d="M681.06,-143.44C698.42,-140.22 716.04,-136.96 731.57,-134.08"/>
<polygon fill="#90918e" stroke="#90918e" stroke-width="2.2" points="732.15,-137.54 741.35,-132.27 730.88,-130.65 732.15,-137.54"/>
<g id="a_edge20-label"><a xlink:title="Temperature: 293.17 K
Pressure: 101325 Pa
Liquid flow: 977 kmol/hr">
<text text-anchor="middle" x="712.75" y="-143.76" font-family="Arial" font-size="14.00" fill="#90918e"> WAS</text>
</a>
</g>
</g>
<!-- 152145854068&#45;&gt;152135162836 -->
<g id="edge4" class="edge">
<title>152145854068:c-&gt;152135162836:w</title>
<path fill="none" stroke="#90918e" stroke-width="2.2" d="M680.8,-180.04C711.5,-185.47 746.25,-189.86 778.29,-189.86"/>
<g id="a_edge4-label"><a xlink:title="Temperature: 293.17 K
Pressure: 101325 Pa
Liquid flow: 8.78e+04 kmol/hr">
<text text-anchor="middle" x="712.75" y="-189.75" font-family="Arial" font-size="14.00" fill="#90918e"> effluent</text>
</a>
</g>
</g>
<!-- 152165004790&#45;&gt;152165004826 -->
<g id="edge5" class="edge">
<title>152165004790:c-&gt;152165004826:c</title>
<path fill="none" stroke="#90918e" d="M820.36,-111.39C851.03,-100.22 894.77,-84.3 927.54,-72.36"/>
<polygon fill="#90918e" stroke="#90918e" points="928.58,-75.71 936.78,-69 926.19,-69.13 928.58,-75.71"/>
<g id="a_edge5-label"><a xlink:title="Temperature: 293.17 K
Pressure: 101325 Pa
Liquid flow: 184 kmol/hr">
<text text-anchor="middle" x="861.75" y="-110.64" font-family="Arial" font-size="14.00" fill="#90918e"> sludge MT</text>
</a>
</g>
</g>
<!-- 152165004790&#45;&gt;152165210500 -->
<g id="edge18" class="edge">
<title>152165004790:c-&gt;152165210500:c</title>
<path fill="none" stroke="#90918e" stroke-width="1.6" d="M820.17,-133.77C874.41,-146.1 979.19,-166.86 1069.59,-166.86 1069.59,-166.86 1069.59,-166.86 1674.09,-166.86 1726.09,-166.86 1783.78,-182.9 1822.78,-196.24"/>
<polygon fill="#90918e" stroke="#90918e" stroke-width="1.6" points="1821.37,-199.45 1831.97,-199.46 1823.69,-192.85 1821.37,-199.45"/>
<g id="a_edge18-label"><a xlink:title="Temperature: 293.17 K
Pressure: 101325 Pa
Liquid flow: 793 kmol/hr">
<text text-anchor="middle" x="1324.84" y="-169.31" font-family="Arial" font-size="14.00" fill="#90918e"> effluent MT</text>
</a>
</g>
</g>
<!-- 152165004826&#45;&gt;152162516737 -->
<g id="edge6" class="edge">
<title>152165004826:e-&gt;152162516737:c</title>
<path fill="none" stroke="#90918e" stroke-width="1.6" d="M1044.21,-55.86C1057.23,-55.86 1071.07,-55.86 1084.47,-55.86"/>
<polygon fill="#90918e" stroke="#90918e" stroke-width="1.6" points="1084.19,-59.36 1094.19,-55.86 1084.19,-52.36 1084.19,-59.36"/>
<g id="a_edge6-label"><a xlink:title="Temperature: 293.17 K
Pressure: 101325 Pa
Liquid flow: 552 kmol/hr">
<text text-anchor="middle" x="1070.59" y="-58.31" font-family="Arial" font-size="14.00" fill="#90918e"> ws3</text>
</a>
</g>
</g>
<!-- 152162516737&#45;&gt;152165210407 -->
<g id="edge7" class="edge">
<title>152162516737:c-&gt;152165210407:c</title>
<path fill="none" stroke="#90918e" stroke-width="1.6" d="M1222.85,-55.86C1232.9,-55.86 1243.37,-55.86 1253.59,-55.86"/>
<polygon fill="#90918e" stroke="#90918e" stroke-width="1.6" points="1253.48,-59.36 1263.48,-55.86 1253.48,-52.36 1253.48,-59.36"/>
<g id="a_edge7-label"><a xlink:title="Temperature: 293.17 K
Pressure: 101325 Pa
Liquid flow: 437 kmol/hr">
<text text-anchor="middle" x="1244.34" y="-58.31" font-family="Arial" font-size="14.00" fill="#90918e"> ws4</text>
</a>
</g>
</g>
<!-- 152165210407&#45;&gt;152164980166 -->
<g id="edge17" class="edge">
<title>152165210407:c-&gt;152164980166:c</title>
<path fill="none" stroke="#90918e" d="M1383.75,-45.02C1386.35,-44.68 1388.93,-44.38 1391.46,-44.11 1412.36,-41.93 1435.13,-40.75 1455.99,-40.14"/>
<polygon fill="#90918e" stroke="#90918e" points="1455.94,-43.64 1465.85,-39.89 1455.76,-36.64 1455.94,-43.64"/>
<g id="a_edge17-label"><a xlink:title="Temperature: 308.15 K
Pressure: 101325 Pa
Liquid flow: 383 kmol/hr">
<text text-anchor="middle" x="1425.59" y="-46.56" font-family="Arial" font-size="14.00" fill="#90918e"> sludge DG</text>
</a>
</g>
</g>
<!-- 152165210407&#45;&gt;152144852914 -->
<g id="edge8" class="edge">
<title>152165210407:c-&gt;152144852914:w</title>
<path fill="none" stroke="#90918e" stroke-dasharray="5,2" d="M1383.71,-77.92C1422.94,-90.93 1476.3,-104.86 1524.88,-104.86"/>
<g id="a_edge8-label"><a xlink:title="(empty)">
<text text-anchor="middle" x="1425.59" y="-100.2" font-family="Arial" font-size="14.00" fill="#90918e"> gas</text>
</a>
</g>
</g>
<!-- 152164980166&#45;&gt;152165004553 -->
<g id="edge9" class="edge">
<title>152164980166:c-&gt;152165004553:c</title>
<path fill="none" stroke="#90918e" stroke-width="1.6" d="M1590.65,-52.24C1601.06,-54.37 1611.77,-56.55 1621.86,-58.61"/>
<polygon fill="#90918e" stroke="#90918e" stroke-width="1.6" points="1620.93,-62 1631.43,-60.57 1622.33,-55.14 1620.93,-62"/>
<g id="a_edge9-label"><a xlink:title="Temperature: 308.15 K
Pressure: 101325 Pa
Liquid flow: 384 kmol/hr">
<text text-anchor="middle" x="1612.09" y="-61.1" font-family="Arial" font-size="14.00" fill="#90918e"> ws8</text>
</a>
</g>
</g>
<!-- 152165004553&#45;&gt;152165210500 -->
<g id="edge19" class="edge">
<title>152165004553:c-&gt;152165210500:c</title>
<path fill="none" stroke="#90918e" d="M1712.66,-84.57C1741.57,-96.73 1778.32,-113.14 1791.46,-123.11 1804.33,-132.87 1816.54,-145.11 1827.29,-157.41"/>
<polygon fill="#90918e" stroke="#90918e" points="1824.38,-159.38 1833.52,-164.75 1829.72,-154.86 1824.38,-159.38"/>
<g id="a_edge19-label"><a xlink:title="Temperature: 308.15 K
Pressure: 101325 Pa
Liquid flow: 241 kmol/hr">
<text text-anchor="middle" x="1755.84" y="-125.56" font-family="Arial" font-size="14.00" fill="#90918e"> effluent DU</text>
</a>
</g>
</g>
<!-- 152165004553&#45;&gt;152144851654 -->
<g id="edge10" class="edge">
<title>152165004553:c-&gt;152144851654:w</title>
<path fill="none" stroke="#90918e" d="M1712.34,-66.41C1715,-66.29 1717.65,-66.19 1720.21,-66.11 1751.87,-65.17 1759.8,-65.53 1791.46,-66.11 1824.49,-66.72 1832.71,-68.86 1865.74,-68.86"/>
<g id="a_edge10-label"><a xlink:title="Temperature: 308.15 K
Pressure: 101325 Pa
Liquid flow: 143 kmol/hr">
<text text-anchor="middle" x="1755.84" y="-68.56" font-family="Arial" font-size="14.00" fill="#90918e"> sludge DU</text>
</a>
</g>
</g>
<!-- 152165210500&#45;&gt;152164960503 -->
<g id="edge11" class="edge">
<title>152165210500:e-&gt;152164960503:c</title>
<path fill="none" stroke="#90918e" stroke-width="2.2" d="M1942.2,-213.86C1943.75,-213.86 1942.17,-268.51 1941.2,-269.72 1864.87,-365.14 1796.28,-334.86 1674.09,-334.86 397.4,-334.86 397.4,-334.86 397.4,-334.86 346.39,-334.86 292.92,-309.8 256.88,-288.65"/>
<polygon fill="#90918e" stroke="#90918e" stroke-width="2.2" points="259.03,-285.86 248.66,-283.68 255.41,-291.85 259.03,-285.86"/>
<g id="a_edge11-label"><a xlink:title="Temperature: 294.55 K
Pressure: 101325 Pa
Liquid flow: 1.54e+03 kmol/hr">
<text text-anchor="middle" x="1070.59" y="-337.31" font-family="Arial" font-size="14.00" fill="#90918e"> reject</text>
</a>
</g>
</g>
<!-- 152135164201&#45;&gt;152164960503 -->
<g id="edge1" class="edge">
<title>152135164201:e-&gt;152164960503:c</title>
<path fill="none" stroke="#90918e" stroke-width="2.2" d="M10.8,-259.86C60.29,-259.86 116.64,-259.86 157.02,-259.86"/>
<g id="a_edge1-label"><a xlink:title="Temperature: 293.15 K
Pressure: 101325 Pa
Liquid flow: 8.82e+04 kmol/hr">
<text text-anchor="middle" x="84.05" y="-262.31" font-family="Arial" font-size="14.00" fill="#90918e"> domestic wastewater</text>
</a>
</g>
</g>
<!-- 152135161646&#45;&gt;152165004700 -->
<g id="edge13" class="edge">
<title>152135161646:e-&gt;152165004700:c</title>
<path fill="none" stroke="#90918e" d="M219.45,-162.86C285.85,-162.86 304.06,-144.36 368.8,-159.11 371.38,-159.7 374,-160.55 376.55,-161.54"/>
<g id="a_edge13-label"><a xlink:title="Temperature: 293.15 K
Pressure: 101325 Pa
Liquid flow: 1.01 kmol/hr">
<text text-anchor="middle" x="322.3" y="-161.56" font-family="Arial" font-size="14.00" fill="#90918e"> organic carbon</text>
</a>
</g>
</g>
<!-- 152164960503 -->
<g id="node1" class="node">
<title>152164960503</title>
<g id="a_node1"><a xlink:title="Electricity consumption: 0.311 kW
Utility cost: 0.0244 USD/hr
Purchase cost: 10,703,254 USD
Installed equipment cost: 10,703,254 USD">
<polygon fill="#555f69" stroke="#90918e" points="267.8,-281.46 157.3,-281.46 157.3,-238.26 267.8,-238.26 267.8,-281.46"/>
<text text-anchor="middle" x="212.55" y="-262.31" font-family="Arial" font-size="14.00" fill="white">PC</text>
<text text-anchor="middle" x="212.55" y="-246.56" font-family="Arial" font-size="14.00" fill="white">Primary clarifier</text>
</a>
</g>
</g>
<!-- 152165004766 -->
<g id="node2" class="node">
<title>152165004766</title>
<g id="a_node2"><a xlink:title="Electricity consumption: 0.0752 kW
Utility cost: 0.00588 USD/hr
Purchase cost: 1,567,025 USD
Installed equipment cost: 1,567,025 USD">
<polygon fill="#555f69" stroke="#90918e" points="820,-279.46 744.75,-279.46 744.75,-236.26 820,-236.26 820,-279.46"/>
<text text-anchor="middle" x="782.38" y="-260.31" font-family="Arial" font-size="14.00" fill="white">GT</text>
<text text-anchor="middle" x="782.38" y="-244.56" font-family="Arial" font-size="14.00" fill="white">Thickener</text>
</a>
</g>
</g>
<!-- 152165004700 -->
<g id="node3" class="node">
<title>152165004700</title>
<g id="a_node3"><a xlink:title="No capital costs or utilities">
<polygon fill="#555f69" stroke="#90918e" points="420,-194.46 376.8,-194.46 376.8,-151.26 420,-151.26 420,-194.46"/>
<text text-anchor="middle" x="398.4" y="-175.31" font-family="Arial" font-size="14.00" fill="white">AS</text>
<text text-anchor="middle" x="398.4" y="-159.56" font-family="Arial" font-size="14.00" fill="white">PFR</text>
</a>
</g>
</g>
<!-- 152145854068 -->
<g id="node4" class="node">
<title>152145854068</title>
<g id="a_node4"><a xlink:title="Electricity consumption: 5.31 kW
Utility cost: 0.415 USD/hr
Purchase cost: 14,265,684 USD
Installed equipment cost: 14,265,684 USD">
<polygon fill="#555f69" stroke="#90918e" points="680.75,-181.46 502,-181.46 502,-138.26 680.75,-138.26 680.75,-181.46"/>
<text text-anchor="middle" x="591.38" y="-162.31" font-family="Arial" font-size="14.00" fill="white">C1</text>
<text text-anchor="middle" x="591.38" y="-146.56" font-family="Arial" font-size="14.00" fill="white">Flat bottom circular clarifier</text>
</a>
</g>
</g>
<!-- 152165004790 -->
<g id="node5" class="node">
<title>152165004790</title>
<g id="a_node5"><a xlink:title="Electricity consumption: 0.0466 kW
Utility cost: 0.00365 USD/hr
Purchase cost: 1,287,505 USD
Installed equipment cost: 1,287,505 USD">
<polygon fill="#555f69" stroke="#90918e" points="820,-146.46 744.75,-146.46 744.75,-103.26 820,-103.26 820,-146.46"/>
<text text-anchor="middle" x="782.38" y="-127.31" font-family="Arial" font-size="14.00" fill="white">MT</text>
<text text-anchor="middle" x="782.38" y="-111.56" font-family="Arial" font-size="14.00" fill="white">Thickener</text>
</a>
</g>
</g>
<!-- 152165004826 -->
<g id="node6" class="node">
<title>152165004826</title>
<g id="a_node6"><a xlink:title="No capital costs or utilities">
<polygon fill="#555f69" stroke="#90918e" points="1044.21,-55.86 938.68,-111.72 938.68,0 1044.21,-55.86"/>
<text text-anchor="middle" x="973.86" y="-58.31" font-family="Arial" font-size="14.00" fill="white">M1</text>
<text text-anchor="middle" x="973.86" y="-42.56" font-family="Arial" font-size="14.00" fill="white">Mixer</text>
</a>
</g>
</g>
<!-- 152162516737 -->
<g id="node7" class="node">
<title>152162516737</title>
<g id="a_node7"><a xlink:title="No capital costs or utilities">
<polygon fill="#555f69" stroke="#90918e" points="1222.46,-77.46 1096.96,-77.46 1096.96,-34.26 1222.46,-34.26 1222.46,-77.46"/>
<text text-anchor="middle" x="1159.71" y="-58.31" font-family="Arial" font-size="14.00" fill="white">J1</text>
<text text-anchor="middle" x="1159.71" y="-42.56" font-family="Arial" font-size="14.00" fill="white">ASM2dtom ADM1</text>
</a>
</g>
</g>
<!-- 152165210407 -->
<g id="node8" class="node">
<title>152165210407</title>
<g id="a_node8"><a xlink:title="Heating duty: 621 MJ/hr
Utility cost: 3.82 USD/hr">
<polygon fill="#555f69" stroke="#90918e" points="1383.46,-77.46 1266.21,-77.46 1266.21,-34.26 1383.46,-34.26 1383.46,-77.46"/>
<text text-anchor="middle" x="1324.84" y="-58.31" font-family="Arial" font-size="14.00" fill="white">DG</text>
<text text-anchor="middle" x="1324.84" y="-42.56" font-family="Arial" font-size="14.00" fill="white">Anaerobic CSTR</text>
</a>
</g>
</g>
<!-- 152164980166 -->
<g id="node9" class="node">
<title>152164980166</title>
<g id="a_node9"><a xlink:title="No capital costs or utilities">
<polygon fill="#555f69" stroke="#90918e" points="1590.21,-61.46 1467.71,-61.46 1467.71,-18.26 1590.21,-18.26 1590.21,-61.46"/>
<text text-anchor="middle" x="1528.96" y="-42.31" font-family="Arial" font-size="14.00" fill="white">J2</text>
<text text-anchor="middle" x="1528.96" y="-26.56" font-family="Arial" font-size="14.00" fill="white">MADM1to asm2d</text>
</a>
</g>
</g>
<!-- 152165004553 -->
<g id="node10" class="node">
<title>152165004553</title>
<g id="a_node10"><a xlink:title="Electricity consumption: 0.0909 kW
Utility cost: 0.00711 USD/hr
Purchase cost: 206,983 USD
Installed equipment cost: 206,983 USD">
<polygon fill="#555f69" stroke="#90918e" points="1712.21,-90.46 1633.96,-90.46 1633.96,-47.26 1712.21,-47.26 1712.21,-90.46"/>
<text text-anchor="middle" x="1673.09" y="-71.31" font-family="Arial" font-size="14.00" fill="white">DU</text>
<text text-anchor="middle" x="1673.09" y="-55.56" font-family="Arial" font-size="14.00" fill="white">Centrifuge</text>
</a>
</g>
</g>
<!-- 152165210500 -->
<g id="node11" class="node">
<title>152165210500</title>
<g id="a_node11"><a xlink:title="No capital costs or utilities">
<polygon fill="#555f69" stroke="#90918e" points="1940.18,-213.86 1834.64,-269.72 1834.64,-158 1940.18,-213.86"/>
<text text-anchor="middle" x="1869.82" y="-216.31" font-family="Arial" font-size="14.00" fill="white">M2</text>
<text text-anchor="middle" x="1869.82" y="-200.56" font-family="Arial" font-size="14.00" fill="white">Mixer</text>
</a>
</g>
</g>
<!-- 152135164201 -->
<g id="node12" class="node">
<title>152135164201</title>
<polygon fill="#f98f60" stroke="#90918e" points="5.4,-265.26 0,-259.86 5.4,-254.46 10.8,-259.86 5.4,-265.26"/>
</g>
<!-- 152135162836 -->
<g id="node13" class="node">
<title>152135162836</title>
<polygon fill="#f98f60" stroke="#90918e" points="787.77,-189.86 779.67,-197.06 779.67,-182.66 787.77,-189.86"/>
</g>
<!-- 152144852914 -->
<g id="node14" class="node">
<title>152144852914</title>
<polygon fill="#f98f60" stroke="#90918e" points="1534.36,-104.86 1526.26,-112.06 1526.26,-97.66 1534.36,-104.86"/>
</g>
<!-- 152144851654 -->
<g id="node15" class="node">
<title>152144851654</title>
<polygon fill="#f98f60" stroke="#90918e" points="1875.22,-68.86 1867.12,-76.06 1867.12,-61.66 1875.22,-68.86"/>
</g>
<!-- 152135161646 -->
<g id="node16" class="node">
<title>152135161646</title>
<polygon fill="#f98f60" stroke="#90918e" points="212.55,-168.26 207.15,-162.86 212.55,-157.46 217.95,-162.86 212.55,-168.26"/>
</g>
</g>
</svg>