<svg width="96" height="97" xmlns="http://www.w3.org/2000/svg" xmlns:xlink="http://www.w3.org/1999/xlink" xml:space="preserve" overflow="hidden"><defs><clipPath id="clip0"><rect x="436" y="229" width="96" height="97"/></clipPath><clipPath id="clip1"><rect x="436" y="230" width="96" height="96"/></clipPath><clipPath id="clip2"><rect x="436" y="230" width="96" height="96"/></clipPath><clipPath id="clip3"><rect x="436" y="230" width="96" height="96"/></clipPath></defs><g clip-path="url(#clip0)" transform="translate(-436 -229)"><g clip-path="url(#clip1)"><g clip-path="url(#clip2)"><g clip-path="url(#clip3)"><path d="M474 298 494 298 494 312 474 312Z" fill="#79BF82" fill-rule="nonzero" fill-opacity="1"/><path d="M474 244 494 244 494 258 474 258Z" fill="#79BF82" fill-rule="nonzero" fill-opacity="1"/><path d="M444 298 464 298 464 312 444 312Z" fill="#79BF82" fill-rule="nonzero" fill-opacity="1"/><path d="M504 298 524 298 524 312 504 312Z" fill="#79BF82" fill-rule="nonzero" fill-opacity="1"/><path d="M486 276 486 262 482 262 482 276 452 276 452 294 456 294 456 280 482 280 482 294 486 294 486 280 512 280 512 294 516 294 516 276Z" fill="#79BF82" fill-rule="nonzero" fill-opacity="1"/></g></g></g></g></svg>