<svg width="98" height="96" xmlns="http://www.w3.org/2000/svg" xmlns:xlink="http://www.w3.org/1999/xlink" xml:space="preserve" overflow="hidden"><defs><clipPath id="clip0"><rect x="594" y="228" width="98" height="96"/></clipPath><clipPath id="clip1"><rect x="595" y="228" width="96" height="96"/></clipPath><clipPath id="clip2"><rect x="595" y="228" width="96" height="96"/></clipPath><clipPath id="clip3"><rect x="595" y="228" width="96" height="96"/></clipPath></defs><g clip-path="url(#clip0)" transform="translate(-594 -228)"><g clip-path="url(#clip1)"><g clip-path="url(#clip2)"><g clip-path="url(#clip3)"><path d="M647.75 267.05 638.94 267.05C638.112 267.05 637.44 267.722 637.44 268.55 637.44 269.378 638.112 270.05 638.94 270.05L647.75 270.05C648.578 270.05 649.25 269.378 649.25 268.55 649.25 267.722 648.578 267.05 647.75 267.05Z" fill="#60C1CF" fill-rule="nonzero" fill-opacity="1"/><path d="M643.34 275C645.03 274.998 646.429 273.686 646.54 272L640.15 272C640.255 273.685 641.652 274.998 643.34 275Z" fill="#60C1CF" fill-rule="nonzero" fill-opacity="1"/><path d="M643.34 238.44 643.34 238.44C636.356 238.488 630.685 244.097 630.56 251.08L630.56 251.52C630.594 253.054 630.895 254.57 631.45 256 631.967 257.336 632.719 258.569 633.67 259.64 634.856 261.138 635.863 262.769 636.67 264.5 636.838 264.833 637.177 265.045 637.55 265.05L649.15 265.05C649.523 265.045 649.862 264.833 650.03 264.5 650.838 262.769 651.845 261.138 653.03 259.64 653.975 258.566 654.723 257.334 655.24 256 655.78 254.583 656.081 253.086 656.13 251.57L656.13 251.13C656.027 244.126 650.345 238.488 643.34 238.44ZM653.18 251.44C653.139 252.621 652.902 253.786 652.48 254.89 652.086 255.881 651.521 256.795 650.81 257.59 649.687 258.952 648.724 260.438 647.94 262.02L638.75 262.02C637.963 260.438 636.997 258.951 635.87 257.59 635.162 256.794 634.601 255.88 634.21 254.89 633.788 253.786 633.551 252.621 633.51 251.44L633.51 251.08C633.602 245.708 637.967 241.392 643.34 241.36 648.715 241.392 653.082 245.706 653.18 251.08Z" fill="#60C1CF" fill-rule="nonzero" fill-opacity="1"/><path d="M638.52 254.33 643.81 244 643.81 249.98 649.3 248.89 643.81 259 643.81 253.13 638.52 254.33Z" fill="#60C1CF" fill-rule="nonzero" fill-opacity="1"/><path d="M671.84 281.53C671.84 285.827 668.357 289.31 664.06 289.31 659.763 289.31 656.28 285.827 656.28 281.53 656.28 277.233 659.763 273.75 664.06 273.75 668.357 273.75 671.84 277.233 671.84 281.53Z" fill="#60C1CF" fill-rule="nonzero" fill-opacity="1"/><path d="M630.34 281.53C630.34 285.827 626.857 289.31 622.56 289.31 618.263 289.31 614.78 285.827 614.78 281.53 614.78 277.233 618.263 273.75 622.56 273.75 626.857 273.75 630.34 277.233 630.34 281.53Z" fill="#60C1CF" fill-rule="nonzero" fill-opacity="1"/><path d="M678.06 296.05C675.819 294.305 673.226 293.066 670.46 292.42 668.378 291.813 666.227 291.477 664.06 291.42 661.887 291.415 659.728 291.753 657.66 292.42 655.589 292.972 653.608 293.821 651.78 294.94 651.66 295.08 651.55 295.22 651.42 295.35 654.328 296.133 657.049 297.493 659.42 299.35 661.291 300.716 662.383 302.904 662.35 305.22L662.35 307 679.62 307 679.62 299.17C679.65 297.935 679.066 296.767 678.06 296.05Z" fill="#60C1CF" fill-rule="nonzero" fill-opacity="1"/><path d="M624.29 305.22C624.292 302.97 625.324 300.844 627.09 299.45L627.21 299.35 627.34 299.26C629.738 297.554 632.391 296.238 635.2 295.36 635 295.15 634.82 294.93 634.63 294.71 632.873 293.681 630.977 292.91 629 292.42 626.919 291.812 624.768 291.476 622.6 291.42 620.427 291.416 618.268 291.753 616.2 292.42 613.472 293.172 610.9 294.401 608.6 296.05 607.615 296.788 607.025 297.939 607 299.17L607 307 624.29 307Z" fill="#60C1CF" fill-rule="nonzero" fill-opacity="1"/><path d="M627.75 313 627.75 305.22C627.755 303.996 628.332 302.845 629.31 302.11 631.605 300.454 634.18 299.225 636.91 298.48 638.977 297.809 641.137 297.471 643.31 297.48 645.478 297.531 647.63 297.867 649.71 298.48 652.481 299.12 655.079 300.359 657.32 302.11 658.322 302.824 658.903 303.99 658.87 305.22L658.87 313Z" fill="#60C1CF" fill-rule="nonzero" fill-opacity="1"/><path d="M651.09 287.58C651.09 291.877 647.607 295.36 643.31 295.36 639.013 295.36 635.53 291.877 635.53 287.58 635.53 283.283 639.013 279.8 643.31 279.8 647.607 279.8 651.09 283.283 651.09 287.58Z" fill="#60C1CF" fill-rule="nonzero" fill-opacity="1"/></g></g></g></g></svg>