<svg width="98" height="98" xmlns="http://www.w3.org/2000/svg" xmlns:xlink="http://www.w3.org/1999/xlink" xml:space="preserve" overflow="hidden"><defs><clipPath id="clip0"><rect x="734" y="246" width="98" height="98"/></clipPath><clipPath id="clip1"><rect x="735" y="247" width="96" height="96"/></clipPath><clipPath id="clip2"><rect x="735" y="247" width="96" height="96"/></clipPath><clipPath id="clip3"><rect x="735" y="247" width="96" height="96"/></clipPath></defs><g clip-path="url(#clip0)" transform="translate(-734 -246)"><g clip-path="url(#clip1)"><g clip-path="url(#clip2)"><g clip-path="url(#clip3)"><path d="M783 257C762 257 745 274 745 295 745 316 762 333 783 333 804 333 821 316 821 295 821 274 804 257 783 257ZM783 323C780.2 323 778 320.8 778 318 778 315.2 780.2 313 783 313 785.8 313 788 315.2 788 318 788 320.8 785.8 323 783 323ZM786 299.8C786 302.4 786 309 786 309L780 309 780 294 783 294C789.7 294 794 290.1 794 284 794 277.7 789.3 273 783 273 776.1 273 772 277.1 772 284L766 284C766 273.8 772.8 267 783 267 792.5 267 800 274.5 800 284 800 292.5 794.4 298.6 786 299.8Z" fill="#79BF82" fill-rule="nonzero" fill-opacity="1"/></g></g></g></g></svg>