<svg width="98" height="96" xmlns="http://www.w3.org/2000/svg" xmlns:xlink="http://www.w3.org/1999/xlink" xml:space="preserve" overflow="hidden"><defs><clipPath id="clip0"><rect x="570" y="236" width="98" height="96"/></clipPath><clipPath id="clip1"><rect x="571" y="236" width="96" height="96"/></clipPath><clipPath id="clip2"><rect x="571" y="236" width="96" height="96"/></clipPath><clipPath id="clip3"><rect x="571" y="236" width="96" height="96"/></clipPath></defs><g clip-path="url(#clip0)" transform="translate(-570 -236)"><g clip-path="url(#clip1)"><g clip-path="url(#clip2)"><g clip-path="url(#clip3)"><path d="M619 246C598 246 581 263 581 284 581 305 598 322 619 322 640 322 657 305 657 284 657 263 640 246 619 246ZM585 284C585 275.1 588.4 267.1 594 261 594.9 261.5 595.8 262.3 596 263L596 269.3C596 269.7 596.1 270.2 596.4 270.5L603 279 603.5 278.5C603.8 278.2 603.9 277.7 603.7 277.3L602.5 275.3C602 274.5 602.8 273.5 603.7 273.8 604 273.9 604.2 274.1 604.3 274.3L607.6 280.8C608 281.5 608.6 282.1 609.3 282.3L613.7 283.8C614 283.9 614.2 284.1 614.3 284.3L614.6 284.8C614.9 285.5 615.6 285.9 616.4 285.9L617.6 285.9C617.9 285.9 618.2 286.1 618.4 286.3L619.7 288.2C620 288.6 620.4 288.9 620.9 289L623 289.5C623.6 289.6 623.9 290.3 623.7 290.8 623.7 290.8 622.1 292.4 622.1 294.7 622.1 301.3 628.1 303.2 628.1 304.7 628.1 308.8 627.5 314.5 627.2 316.7 624.6 317.3 621.9 317.7 619.1 317.7 600.3 318 585 302.7 585 284ZM631.8 315.5C634 313.6 637.7 310.4 639 309 640.7 307.1 641 304 641 304 641 304 648 302.1 648 297 648 293.5 641 292 641 292 639.8 288.1 633.9 286 629 286 627.9 286 624 288 624 288L622 287 622 284C622 283.4 621.6 283 621 283L619 283 619 280C619 279.4 618.6 279 618 279L617 279 615.9 279.7C614.9 280.4 613.5 280 613 278.9 613 278.9 612 277.5 612 276.9 612 272.6 617 272.9 617 272.9L619.2 272.9C619.7 272.9 620.1 273.2 620.2 273.7L620.8 276.2C620.9 276.6 621.3 277 621.8 277L622.2 277C622.7 277 623.1 276.7 623.2 276.2L623.9 272.5C624 272.2 624.1 271.9 624.3 271.6L627.1 268.1C627.7 267.4 628.5 267 629.4 267L632 267C632.6 267 633 266.6 633 266L633 265 632.7 264.7C632.1 264.1 632.5 263 633.4 263L634 263C634.6 263 635 263.4 635 264 635 264.6 635.4 265 636 265L637 265 637.6 262.4C637.8 261.5 637.4 260.7 636.7 260.2L628.2 255.1C628.1 255 627.9 255 627.7 255L626 255C624.9 255 624 255.9 624 257L624 258C624 258.6 623.6 259 623 259L622 259 621 258 618 258C617.4 258 617 257.6 617 257L617 254.5C617 254.2 617.1 253.9 617.4 253.7L623.8 251 624.8 252.7C625 252.9 625.2 253 625.5 253L628 253C628.6 253 629 252.6 629 252L629 251.5C642.9 255.8 653 268.7 653 284 653 298.2 644.2 310.4 631.8 315.5Z" fill="#60C1CF" fill-rule="nonzero" fill-opacity="1"/><path d="M631.3 279.8 626.5 278.2C626.1 278.1 625.8 278.1 625.4 278.2L622 279C621.7 279.2 621.6 279.6 622 280L626.6 280C626.9 280 627.1 280 627.3 280.1L630.8 281.5C631.4 281.7 632 281.3 632 280.7 632 280.3 631.7 279.9 631.3 279.8Z" fill="#60C1CF" fill-rule="nonzero" fill-opacity="1"/></g></g></g></g></svg>