<svg width="97" height="98" xmlns="http://www.w3.org/2000/svg" xmlns:xlink="http://www.w3.org/1999/xlink" xml:space="preserve" overflow="hidden"><defs><clipPath id="clip0"><rect x="277" y="246" width="97" height="98"/></clipPath><clipPath id="clip1"><rect x="278" y="247" width="96" height="96"/></clipPath><clipPath id="clip2"><rect x="278" y="247" width="96" height="96"/></clipPath><clipPath id="clip3"><rect x="278" y="247" width="96" height="96"/></clipPath></defs><g clip-path="url(#clip0)" transform="translate(-277 -246)"><g clip-path="url(#clip1)"><g clip-path="url(#clip2)"><g clip-path="url(#clip3)"><path d="M362.006 260.996 290.006 260.996C287.799 261.003 286.012 262.79 286.006 264.996L286.006 312.996C286.012 315.203 287.799 316.99 290.006 316.996L318.006 316.996 318.006 322.996 308.006 322.996 308.006 328.996 344.006 328.996 344.006 322.996 334.006 322.996 334.006 316.996 362.006 316.996C364.212 316.99 365.999 315.203 366.006 312.996L366.006 264.996C365.999 262.79 364.212 261.003 362.006 260.996ZM360.006 310.996 292.006 310.996 292.006 266.996 360.006 266.996Z" fill="#60C1CF" fill-rule="nonzero" fill-opacity="1"/><path d="M302.177 300.329C305.638 300.218 315.402 300.429 323.336 305.612 323.71 305.86 324.148 305.993 324.597 305.996L327.427 305.996C327.857 305.994 328.278 305.871 328.642 305.641 336.962 300.457 346.423 300.22 349.814 300.327 350.442 300.347 350.968 299.854 350.989 299.226 350.99 299.177 350.989 299.129 350.984 299.081L349.27 280.578C349.217 279.989 348.722 279.539 348.131 279.542 347.846 279.544 347.498 279.553 347.108 279.568L346.81 276.394 345.966 276.333C345.085 276.295 344.203 276.32 343.326 276.406L343.057 273.286 342.304 273.15C336.306 272.408 330.299 274.451 325.996 278.694 321.694 274.451 315.687 272.409 309.689 273.15L308.936 273.286 308.667 276.406C307.79 276.32 306.908 276.295 306.027 276.332L305.182 276.393 304.885 279.568C304.495 279.552 304.147 279.544 303.862 279.542 303.271 279.539 302.776 279.989 302.723 280.578L301.009 299.083C300.949 299.708 301.407 300.264 302.032 300.324 302.081 300.329 302.129 300.33 302.177 300.329ZM326.997 280.532C330.684 276.687 335.884 274.672 341.199 275.028L342.749 292.983C336.942 294.047 331.513 296.606 326.997 300.408ZM326.997 303.155C333.865 296.127 343.843 294.831 343.945 294.818L344.904 294.701 343.499 278.412C344.097 278.357 344.606 278.329 344.982 278.321L346.679 296.444C339.531 296.644 332.635 299.124 326.997 303.521ZM310.793 275.035C316.103 274.705 321.293 276.714 324.997 280.534L324.997 300.409C320.481 296.607 315.051 294.047 309.244 292.983ZM307.012 278.318C307.388 278.326 307.896 278.353 308.495 278.407L307.089 294.703 308.048 294.818C308.15 294.831 318.114 296.109 324.997 303.156L324.997 303.522C319.359 299.124 312.462 296.644 305.314 296.444Z" fill="#60C1CF" fill-rule="nonzero" fill-opacity="1"/><path d="M330.006 289.438 330.006 291.89C332.707 289.931 335.7 288.413 338.876 287.391L338.719 285.339C335.637 286.292 332.704 287.671 330.006 289.438Z" fill="#60C1CF" fill-rule="nonzero" fill-opacity="1"/><path d="M338.313 280.049C335.378 280.993 332.584 282.327 330.006 284.017L330.006 286.469C332.589 284.592 335.444 283.122 338.471 282.107Z" fill="#60C1CF" fill-rule="nonzero" fill-opacity="1"/></g></g></g></g></svg>